HIERARCHY
ROOT Hips
{
    OFFSET 0.000000 0.000000 0.000000
    CHANNELS 6 Xposition Yposition Zposition Zrotation Xrotation Yrotation
    JOINT Spine
    {
        OFFSET -0.000000 7.236184 0.000000
        CHANNELS 3 Zrotation Xrotation Yrotation
        JOINT Spine1
        {
            OFFSET -0.000000 20.420147 0.000000
            CHANNELS 3 Zrotation Xrotation Yrotation
            JOINT Neck
            {
                OFFSET -0.000000 20.336288 1.848754
                CHANNELS 3 Zrotation Xrotation Yrotation
                JOINT Head
                {
                    OFFSET -0.000000 12.354461 -1.764923
                    CHANNELS 3 Zrotation Xrotation Yrotation
                    End Site
                    {
                        OFFSET -0.000000 22.061537 0.000000
                    }
                }
            }
            JOINT LeftShoulder
            {
                OFFSET 3.573296 18.396038 -0.314103
                CHANNELS 3 Zrotation Xrotation Yrotation
                JOINT LeftArm
                {
                    OFFSET 10.880760 0.000000 0.000000
                    CHANNELS 3 Zrotation Xrotation Yrotation
                    JOINT LeftForeArm
                    {
                        OFFSET 27.185530 0.000000 0.000000
                        CHANNELS 3 Zrotation Xrotation Yrotation
                        JOINT LeftHand
                        {
                            OFFSET 27.825975 0.000000 0.000000
                            CHANNELS 3 Zrotation Xrotation Yrotation
                            End Site
                            {
                                OFFSET 13.236923 0.000000 0.000000
                            }
                        }
                    }
                }
            }
            JOINT RightShoulder
            {
                OFFSET -3.474926 18.396038 -0.314103
                CHANNELS 3 Zrotation Xrotation Yrotation
                JOINT RightArm
                {
                    OFFSET -10.880760 0.000000 0.000000
                    CHANNELS 3 Zrotation Xrotation Yrotation
                    JOINT RightForeArm
                    {
                        OFFSET -27.185530 0.000000 0.000000
                        CHANNELS 3 Zrotation Xrotation Yrotation
                        JOINT RightHand
                        {
                            OFFSET -27.825975 0.000000 0.000000
                            CHANNELS 3 Zrotation Xrotation Yrotation
                            End Site
                            {
                                OFFSET -13.236923 0.000000 0.000000
                            }
                        }
                    }
                }
            }
        }
    }
    JOINT LeftUpLeg
    {
        OFFSET 8.824615 0.000000 0.000000
        CHANNELS 3 Zrotation Xrotation Yrotation
        JOINT LeftLeg
        {
            OFFSET -0.000000 -35.111282 0.000000
            CHANNELS 3 Zrotation Xrotation Yrotation
            JOINT LeftFoot
            {
                OFFSET -0.000000 -42.324711 0.000000
                CHANNELS 3 Zrotation Xrotation Yrotation
                JOINT LeftToeBase
                {
                    OFFSET -0.000000 -5.735999 13.236923
                    CHANNELS 3 Zrotation Xrotation Yrotation
                    End Site
                    {
                        OFFSET -0.000000 0.000000 3.529846
                    }
                }
            }
        }
    }
    JOINT RightUpLeg
    {
        OFFSET -8.824615 0.000000 0.000000
        CHANNELS 3 Zrotation Xrotation Yrotation
        JOINT RightLeg
        {
            OFFSET -0.000000 -35.111282 0.000000
            CHANNELS 3 Zrotation Xrotation Yrotation
            JOINT RightFoot
            {
                OFFSET -0.000000 -42.324711 0.000000
                CHANNELS 3 Zrotation Xrotation Yrotation
                JOINT RightToeBase
                {
                    OFFSET -0.000000 -5.735999 13.236923
                    CHANNELS 3 Zrotation Xrotation Yrotation
                    End Site
                    {
                        OFFSET -0.000000 0.000000 3.529846
                    }
                }
            }
        }
    }
}
MOTION
Frames:    4
Frame Time:    0.008333
-22.533760    84.894203    97.413109    -4.573917    -13.147974    162.244385    -0.397420    -17.836657    1.444674    1.047374    8.904027    1.425515    3.577343    9.536599    2.849749    1.851235    -11.310386    3.181732    -0.780467    17.948067    0.445017    -52.670513    43.781559    -30.130756    -0.493593    -8.619916    -12.650997    21.064661    -8.019670    3.555952    9.323404    20.159517    -7.723922    37.588806    45.352779    37.917648    -1.412658    -10.155940    18.844296    -17.910929    -9.259110    -4.284029    5.851413    -18.720543    -4.423399    0.247173    12.508219    -2.045600    -3.364692    -6.546990    -9.775430    0.058455    0.083968    -0.064786    -4.179986    -8.562336    3.308933    2.133055    2.531667    -0.929763    0.093314    -6.265967    -12.364271    -0.721826    -1.214371    0.782025    
-22.570646    84.893158    97.281425    -4.593292    -13.135125    162.320816    -0.390048    -17.894676    1.448644    0.980317    8.810963    1.434564    3.565490    9.448435    2.814264    1.917468    -11.223636    3.157117    -0.786702    17.945045    0.499026    -52.952732    43.504032    -29.750031    -0.518180    -8.540589    -12.532410    20.964975    -7.961214    3.470570    9.351640    20.216513    -7.742823    37.702736    45.396236    37.820454    -1.372139    -10.219964    18.830248    -17.959169    -9.328216    -4.284594    5.867644    -18.348404    -4.439196    0.105840    11.975870    -2.188657    -3.486335    -6.404907    -9.679634    0.036506    -0.003028    -0.040466    -4.243722    -8.454078    3.290435    2.103067    2.520785    -0.991439    0.054630    -6.316781    -12.396536    -0.756008    -1.184702    0.819023    
-22.606773    84.891762    97.150764    -4.609559    -13.121410    162.399460    -0.382377    -17.951082    1.452116    0.916139    8.720204    1.442698    3.553205    9.360970    2.778330    1.982087    -11.141094    3.131654    -0.792476    17.943178    0.553167    -53.222881    43.229816    -29.380985    -0.541190    -8.472303    -12.418634    20.869722    -7.912432    3.390166    9.380150    20.271788    -7.761174    37.820011    45.436340    37.719593    -1.332174    -10.279683    18.813461    -18.004915    -9.393013    -4.285127    5.885768    -17.980810    -4.455185    -0.033494    11.452950    -2.340286    -3.608774    -6.266148    -9.578378    0.015687    -0.088761    -0.017392    -4.304106    -8.345393    3.274192    2.073463    2.512316    -1.054006    0.021545    -6.369155    -12.430479    -0.788226    -1.157918    0.853894    
-22.641687    84.889793    97.021469    -4.620095    -13.106094    162.482681    -0.373748    -18.004490    1.454623    0.856823    8.632994    1.449180    3.535955    9.274357    2.740829    2.052076    -11.066298    3.106279    -0.797908    17.941301    0.606888    -53.481903    42.961723    -29.022692    -0.561751    -8.423236    -12.313014    20.781796    -7.881053    3.316540    9.409019    20.324738    -7.778816    37.943653    45.469952    37.612186    -1.292914    -10.331611    18.791933    -18.046495    -9.450073    -4.285712    5.907084    -17.620928    -4.471505    -0.169720    10.947041    -2.505892    -3.731017    -6.133866    -9.467718    -0.003509    -0.171882    0.003890    -4.358940    -8.235458    3.262066    2.044800    2.507870    -1.117942    -0.003016    -6.424359    -12.468608    -0.817110    -1.135611    0.885157    
